<svg id="svg" xmlns="http://www.w3.org/2000/svg" xmlns:xlink="http://www.w3.org/1999/xlink" width="500" height="500" viewBox="0, 0, 500,500"><g id="svgg"><path id="path0" d="M122.135 246.484 L 122.135 412.240 206.120 412.240 L 290.104 412.240 290.104 399.479 L 290.104 386.719 218.880 386.719 L 147.656 386.719 147.656 246.484 L 147.656 106.250 250.000 106.250 L 352.344 106.250 352.344 246.484 L 352.344 386.719 340.625 386.719 L 328.906 386.719 328.906 399.479 L 328.906 412.240 353.385 412.240 L 377.865 412.240 377.865 246.484 L 377.865 80.729 250.000 80.729 L 122.135 80.729 122.135 246.484 M170.833 137.891 L 170.833 145.573 250.000 145.573 L 329.167 145.573 329.167 137.891 L 329.167 130.208 250.000 130.208 L 170.833 130.208 170.833 137.891 M170.833 175.260 L 170.833 182.813 250.000 182.813 L 329.167 182.813 329.167 175.260 L 329.167 167.708 250.000 167.708 L 170.833 167.708 170.833 175.260 M170.833 212.630 L 170.833 220.313 250.000 220.313 L 329.167 220.313 329.167 212.630 L 329.167 204.948 250.000 204.948 L 170.833 204.948 170.833 212.630 M170.833 250.000 L 170.833 257.552 250.000 257.552 L 329.167 257.552 329.167 250.000 L 329.167 242.448 250.000 242.448 L 170.833 242.448 170.833 250.000 M170.833 287.370 L 170.833 295.052 250.000 295.052 L 329.167 295.052 329.167 287.370 L 329.167 279.688 250.000 279.688 L 170.833 279.688 170.833 287.370 M308.748 309.808 L 305.126 311.516 301.250 310.683 C 298.571 310.107,297.276 309.931,297.056 310.114 C 296.882 310.259,295.695 311.661,294.420 313.229 L 292.101 316.081 288.173 317.033 L 284.245 317.985 283.336 321.815 C 282.836 323.922,282.245 325.823,282.021 326.039 C 281.798 326.255,280.376 327.447,278.861 328.688 L 276.107 330.944 276.974 334.876 L 277.840 338.808 276.160 342.353 C 274.127 346.641,274.018 345.658,276.953 349.466 L 279.427 352.675 279.427 356.618 L 279.427 360.562 283.031 362.349 L 286.635 364.136 288.304 367.420 L 289.974 370.703 290.043 363.583 L 290.113 356.462 289.222 354.989 C 279.962 339.673,291.504 319.595,309.505 319.707 C 327.107 319.816,338.285 338.149,330.314 353.836 L 328.906 356.607 328.906 362.027 C 328.906 365.648,328.997 367.448,329.180 367.448 C 329.331 367.448,330.247 367.268,331.215 367.047 L 332.976 366.647 333.860 362.826 C 334.348 360.716,334.929 358.826,335.158 358.605 C 335.386 358.384,336.816 357.185,338.335 355.940 L 341.098 353.676 340.488 350.862 C 340.153 349.314,339.763 347.538,339.623 346.916 C 339.379 345.835,339.442 345.628,341.038 342.261 C 343.070 337.974,343.171 338.870,340.234 335.116 L 337.760 331.952 337.760 327.957 L 337.760 323.962 334.112 322.134 L 330.463 320.306 328.731 316.830 L 326.998 313.354 324.502 313.189 C 323.129 313.098,321.287 313.023,320.409 313.022 L 318.813 313.021 315.625 310.547 C 313.872 309.186,312.422 308.079,312.403 308.086 C 312.385 308.094,310.740 308.868,308.748 309.808 M170.833 324.740 L 170.833 332.292 216.146 332.292 L 261.458 332.292 261.458 324.740 L 261.458 317.188 216.146 317.188 L 170.833 317.188 170.833 324.740 M304.427 323.962 C 291.630 327.396,285.642 341.891,292.273 353.385 L 293.099 354.818 293.229 413.868 L 293.359 472.919 301.172 467.289 C 305.469 464.193,309.125 461.604,309.297 461.536 C 309.469 461.468,313.154 463.971,317.486 467.099 C 321.817 470.227,325.456 472.826,325.571 472.873 C 325.687 472.921,325.781 446.426,325.781 413.996 L 325.781 355.031 327.049 352.541 C 334.926 337.071,321.025 319.509,304.427 323.962 " stroke="none" fill="#000000" fill-rule="evenodd"></path></g></svg>