<?xml version="1.0" encoding="iso-8859-1"?>
<!-- Uploaded to: SVG Repo, www.svgrepo.com, Generator: SVG Repo Mixer Tools -->
<svg version="1.1" id="Layer_1" xmlns="http://www.w3.org/2000/svg" xmlns:xlink="http://www.w3.org/1999/xlink" 
	 viewBox="0 0 512.001 512.001" xml:space="preserve">
<g>
	<path style="fill:#A5C6E3;" d="M480.247,344.097H272.017c-44.232,0-80.088-35.857-80.088-80.088l0,0
		c0-44.232,35.856-80.088,80.088-80.088h208.229V344.097z"/>
	<rect x="7.726" y="7.727" style="fill:#A5C6E3;" width="168.187" height="496.547"/>
</g>
<polygon style="fill:#1D71B8;" points="231.973,215.956 231.973,336.089 199.939,296.045 191.93,256.001 215.956,207.948 
	231.973,191.93 "/>
<path style="fill:#A5C6E3;" d="M215.956,504.274h208.229c44.232,0,80.088-35.856,80.088-80.088l0,0
	c0-44.232-35.856-80.088-80.088-80.088H215.956V504.274z"/>
<polygon style="fill:#1D71B8;" points="464.229,376.133 464.229,496.266 496.265,456.221 504.274,416.177 480.247,368.124 
	464.229,352.106 "/>
<polygon style="fill:#36A9E1;" points="464.229,496.266 432.194,504.274 432.194,344.097 464.229,352.106 "/>
<rect x="7.726" y="7.727" style="fill:#1D71B8;" width="112.125" height="496.547"/>
<g>
	<polygon style="fill:#36A9E1;" points="272.017,344.097 231.973,344.097 231.973,191.93 272.017,183.921 	"/>
	<rect x="95.827" y="7.727" style="fill:#36A9E1;" width="24.027" height="496.547"/>
</g>
<circle style="fill:#FFFFFF;" cx="91.82" cy="396.157" r="28.031"/>
<g>
	<path style="fill:#1D1D1B;" d="M183.516,512H0v-512h183.516V512z M15.453,496.548h152.611V15.453H15.453V496.548z"/>
	<rect x="39.701" y="40.045" style="fill:#1D1D1B;" width="104.11" height="15.453"/>
	<rect x="39.701" y="456.505" style="fill:#1D1D1B;" width="104.11" height="15.453"/>
	<rect x="39.701" y="72.08" style="fill:#1D1D1B;" width="104.11" height="15.453"/>
</g>
<rect x="71.732" y="104.111" style="fill:#FFFFFF;" width="40.044" height="15.453"/>
<g>
	<path style="fill:#1D1D1B;" d="M91.819,431.912c-19.717,0-35.757-16.041-35.757-35.758s16.041-35.757,35.757-35.757
		c19.717,0,35.758,16.041,35.758,35.757C127.577,415.872,111.536,431.912,91.819,431.912z M91.819,375.851
		c-11.196,0-20.304,9.109-20.304,20.304c0,11.196,9.109,20.305,20.304,20.305c11.196,0,20.305-9.109,20.305-20.305
		C112.124,384.96,103.015,375.851,91.819,375.851z"/>
	<path style="fill:#1D1D1B;" d="M424.185,512H191.93v-15.453h232.256c39.9,0,72.361-32.461,72.361-72.362
		s-32.461-72.362-72.362-72.362H191.93v-15.453h232.256c48.421,0,87.815,39.393,87.815,87.815C512,472.607,472.607,512,424.185,512z
		"/>
</g>
<rect x="456.504" y="384.145" style="fill:#FFFFFF;" width="15.453" height="80.086"/>
<g>
	<rect x="215.957" y="368.404" style="fill:#1D1D1B;" width="224.25" height="15.453"/>
	<rect x="215.957" y="400.442" style="fill:#1D1D1B;" width="224.25" height="15.453"/>
	<rect x="215.957" y="432.481" style="fill:#1D1D1B;" width="224.25" height="15.453"/>
	<rect x="215.957" y="464.509" style="fill:#1D1D1B;" width="224.25" height="15.453"/>
	<path style="fill:#1D1D1B;" d="M504.274,351.824H272.017c-48.421,0-87.815-39.393-87.815-87.815s39.393-87.815,87.815-87.815
		h232.256v15.453H272.017c-39.9,0-72.362,32.461-72.362,72.362s32.461,72.362,72.362,72.362h232.256V351.824z"/>
</g>
<rect x="224.25" y="223.962" style="fill:#FFFFFF;" width="15.453" height="80.086"/>
<g>
	<rect x="256" y="208.231" style="fill:#1D1D1B;" width="224.25" height="15.453"/>
	<rect x="256" y="240.27" style="fill:#1D1D1B;" width="224.25" height="15.453"/>
	<rect x="256" y="272.298" style="fill:#1D1D1B;" width="224.25" height="15.453"/>
	<rect x="256" y="304.337" style="fill:#1D1D1B;" width="224.25" height="15.453"/>
</g>
</svg>